<svg xmlns="http://www.w3.org/2000/svg" viewBox="0 0 820 200" width="820" height="200" role="img" aria-label="AnchorageLabs">
  
  <defs><linearGradient id="wg_deep" x1="0" y1="0" x2="1" y2="0"><stop offset="0" stop-color="#2EA8E0"></stop><stop offset="0.5" stop-color="#2F6BD6"></stop><stop offset="1" stop-color="#13346B"></stop></linearGradient></defs>
  <g transform="translate(40,30) scale(1.1666666666666667)"><defs><linearGradient id="ig_deep" x1="18%" y1="12%" x2="86%" y2="92%"><stop offset="0" stop-color="#3B7BE0"></stop><stop offset="1" stop-color="#13346B"></stop></linearGradient>
    <mask id="m1_deep"><rect width="120" height="120" fill="#fff"></rect><ellipse cx="60" cy="60" rx="43.5" ry="16.5" transform="rotate(60 60 60)" fill="none" stroke="#000" stroke-width="15.7"></ellipse><ellipse cx="60" cy="60" rx="43.5" ry="16.5" transform="rotate(120 60 60)" fill="none" stroke="#000" stroke-width="15.7"></ellipse></mask>
    <mask id="m2_deep"><rect width="120" height="120" fill="#fff"></rect><ellipse cx="60" cy="60" rx="43.5" ry="16.5" transform="rotate(120 60 60)" fill="none" stroke="#000" stroke-width="15.7"></ellipse></mask></defs>
    <circle cx="60" cy="60" r="53" fill="none" stroke="#1E407E" stroke-width="5.5"></circle>
    <polygon points="60.00,71.60 49.95,65.80 49.95,54.20 60.00,48.40 70.05,54.20 70.05,65.80" fill="none" stroke="url(#ig_deep)" stroke-width="2" stroke-linejoin="round" opacity="0.6"></polygon>
    <ellipse cx="60" cy="60" rx="43.5" ry="16.5" transform="rotate(0 60 60)" fill="none" stroke="url(#ig_deep)" stroke-width="10.5" stroke-linecap="round" mask="url(#m1_deep)"></ellipse>
    <ellipse cx="60" cy="60" rx="43.5" ry="16.5" transform="rotate(60 60 60)" fill="none" stroke="url(#ig_deep)" stroke-width="10.5" stroke-linecap="round" mask="url(#m2_deep)"></ellipse>
    <ellipse cx="60" cy="60" rx="43.5" ry="16.5" transform="rotate(120 60 60)" fill="none" stroke="url(#ig_deep)" stroke-width="10.5" stroke-linecap="round"></ellipse>
    <circle cx="60" cy="60" r="6.8" fill="#2EA8E0"></circle></g>
  <text x="210" y="104" dominant-baseline="central" font-size="78" class="wm" fill="url(#wg_deep)">
    <tspan font-weight="800">Anchorage</tspan><tspan font-weight="500">Labs</tspan>
  </text>
  </svg>